:SAMPLES-PER-SECOND 30
:FRAME-RANGE 1-2643
:FULLY-SPECIFIED
:DEGREES
1322
root  -5.39492 38.6539 88.1586 -174.887 45.4082 179.66
RightUpLeg  -21.54 -9.42644 -8.25347
RightLeg  30.2214 -7.09099 -4.6699
RightFoot  -13.1197 0.101056 12.2283
RightToes  5.38607e-012 1.2921e-014 -6.02303e-014
Spine  0.134002 0.24159 -2.08281
Spine1  6.82583 1.91578 -6.61731
HEad  3.72681 29.799 -4.64086
LeftShoulder1  1.25894 -1.52583 -19.8341
LeftArm  -1.79528 -8.17302 -53.0688
LeftForeArm  36.4287 -4.23921 -11.6313
LeftHand  -0.0754959 4.09575 5.18164
RightShoulder  2.30799 3.96322 25.7565
RightArm  -23.9237 13.5545 61.1192
RightForeArm  65.3709 -5.37406 2.88017
RightHand  -0.144442 -4.47458 -16.8712
LeftUpLeg  -16.3322 -0.775922 -2.49479
LeftLeg  20.3757 3.47803 2.1542
LeftFoot  -9.6131 0.0317914 1.7239
LeftToes  -4.79707e-012 -5.93756e-011 -7.55542e-012
1323
root  -4.64671 38.6537 87.8541 -174.883 44.3106 179.941
RightUpLeg  -22.2869 -8.36055 -9.30306
RightLeg  26.4532 -6.61806 -3.78601
RightFoot  -12.5404 0.0445996 12.3852
RightToes  5.38607e-012 1.2921e-014 -6.02303e-014
Spine  0.305261 0.0226981 -1.94701
Spine1  6.69283 1.65565 -6.37134
HEad  4.13976 29.761 -4.62106
LeftShoulder1  1.29727 -1.70332 -19.6652
LeftArm  -1.92989 -9.09924 -53.309
LeftForeArm  36.7721 -4.12448 -11.5959
LeftHand  -0.0739038 4.11582 5.10324
RightShoulder  2.25323 3.78603 25.7748
RightArm  -24.8358 12.972 59.6871
RightForeArm  65.1247 -5.31969 2.50239
RightHand  -0.140725 -4.51 -17.0674
LeftUpLeg  -15.1376 -0.991699 -1.7467
LeftLeg  20.8397 2.66763 1.85009
LeftFoot  -10.9475 0.0610899 1.36252
LeftToes  -4.79707e-012 -5.93756e-011 -7.55542e-012
1324
root  -3.87326 38.6305 87.5634 -174.828 43.1721 -179.634
RightUpLeg  -22.682 -7.48196 -10.2474
RightLeg  22.6455 -6.69314 -3.26569
RightFoot  -11.5354 -0.0583826 11.9146
RightToes  5.38607e-012 1.2921e-014 -6.02303e-014
Spine  0.66301 -0.162275 -1.53879
Spine1  6.4777 1.43278 -6.19711
HEad  4.15965 29.5945 -4.82608
LeftShoulder1  1.31657 -1.79592 -19.567
LeftArm  -1.23194 -9.86692 -53.4789
LeftForeArm  36.6999 -4.23677 -11.7137
LeftHand  -0.0902831 3.68436 5.06495
RightShoulder  2.23016 3.6926 25.8717
RightArm  -25.556 12.1323 57.9408
RightForeArm  64.3892 -5.30867 2.27813
RightHand  -0.133662 -4.57082 -17.3428
LeftUpLeg  -14.0186 -1.46744 -0.762581
LeftLeg  21.5069 2.0491 1.55198
LeftFoot  -12.3639 0.0837502 1.06556
LeftToes  -4.79707e-012 -5.93756e-011 -7.55542e-012
1325
root  -3.0531 38.5543 87.295 -174.866 41.9354 -179.379
RightUpLeg  -22.9187 -6.75592 -11.3735
RightLeg  19.2383 -6.62147 -2.76581
RightFoot  -11.6361 -0.0487946 11.8221
RightToes  5.38607e-012 1.2921e-014 -6.02303e-014
Spine  0.921296 -0.304871 -1.26571
Spine1  6.38948 1.25663 -6.02407
HEad  4.02761 29.3456 -5.07347
LeftShoulder1  1.33217 -1.88204 -19.4301
LeftArm  -0.628656 -10.5046 -53.8453
LeftForeArm  36.529 -4.33117 -11.8142
LeftHand  -0.079315 3.9962 5.16797
RightShoulder  2.19537 3.55824 25.9912
RightArm  -26.4528 10.8879 56.2538
RightForeArm  63.9366 -5.27465 1.97956
RightHand  -0.133335 -4.58539 -17.6352
LeftUpLeg  -13.1033 -2.3201 0.248424
LeftLeg  22.5239 1.67326 1.27012
LeftFoot  -13.9657 0.0946012 0.471066
LeftToes  -4.79707e-012 -5.93756e-011 -7.55542e-012
1326
root  -2.17919 38.4228 87.0382 -174.868 40.6792 -179.105
RightUpLeg  -22.996 -6.30686 -12.5109
RightLeg  16.1732 -5.8592 -2.11663
RightFoot  -11.8503 -0.0279054 11.8601
RightToes  5.38607e-012 1.2921e-014 -6.02303e-014
Spine  1.16011 -0.384333 -0.895981
Spine1  6.2535 1.15112 -5.90321
HEad  4.18336 28.9669 -5.16849
LeftShoulder1  1.33749 -1.91092 -19.387
LeftArm  -0.16242 -11.0389 -54.2888
LeftForeArm  36.6822 -4.23647 -11.9155
LeftHand  -0.0805582 3.94055 5.08464
RightShoulder  2.15069 3.37324 26.2137
RightArm  -27.1705 9.44609 54.45
RightForeArm  63.2899 -5.26647 1.79449
RightHand  -0.140714 -4.53469 -17.6013
LeftUpLeg  -12.3395 -3.05205 1.39167
LeftLeg  23.8339 1.15558 0.918172
LeftFoot  -15.7763 0.0835669 -0.285783
LeftToes  -4.79707e-012 -5.93756e-011 -7.55542e-012
1327
root  -1.25913 38.2722 86.7908 -175.021 39.3296 -179.141
RightUpLeg  -23.027 -5.36056 -14.0772
RightLeg  13.8552 -5.67117 -1.87797
RightFoot  -11.8874 -0.0257043 11.5663
RightToes  5.38607e-012 1.2921e-014 -6.02303e-014
Spine  1.13738 -0.499477 -0.767875
Spine1  6.3994 0.984652 -5.66385
HEad  4.24481 28.5764 -5.41438
LeftShoulder1  1.3506 -1.92906 -19.561
LeftArm  0.231755 -11.356 -54.5385
LeftForeArm  36.5045 -4.25199 -11.9927
LeftHand  -0.0726476 4.15012 5.11233
RightShoulder  2.10793 3.19982 26.4197
RightArm  -27.8897 7.98121 52.8957
RightForeArm  62.7777 -5.24831 1.57993
RightHand  -0.146222 -4.50687 -17.795
LeftUpLeg  -11.5992 -3.70527 2.30098
LeftLeg  24.997 0.510729 0.616693
LeftFoot  -17.3278 0.0606354 -0.827794
LeftToes  -4.79707e-012 -5.93756e-011 -7.55542e-012
1328
root  -0.269104 38.1132 86.5511 -175.357 38.0556 -179.489
RightUpLeg  -23.0166 -4.78213 -15.656
RightLeg  12.299 -5.01269 -1.84103
RightFoot  -11.7547 -0.039846 11.1209
RightToes  5.38607e-012 1.2921e-014 -6.02303e-014
Spine  1.04915 -0.595022 -0.882889
Spine1  6.55313 0.84588 -5.4882
HEad  4.31738 28.4591 -5.66787
LeftShoulder1  1.35685 -1.92724 -19.6989
LeftArm  -0.205565 -11.3543 -54.7824
LeftForeArm  36.6896 -3.89742 -11.9728
LeftHand  -0.080068 3.94803 5.06753
RightShoulder  2.07272 3.02204 26.7844
RightArm  -28.3544 6.51239 51.2663
RightForeArm  62.3194 -5.24883 1.48804
RightHand  -0.16365 -4.39086 -17.7778
LeftUpLeg  -10.5923 -4.11763 3.10221
LeftLeg  25.7009 -0.367939 0.164111
LeftFoot  -18.8058 0.0190587 -1.43668
LeftToes  -4.79707e-012 -5.93756e-011 -7.55542e-012
1329
root  0.794994 37.9489 86.325 -175.632 36.8586 -179.846
RightUpLeg  -22.9058 -4.23688 -17.0227
RightLeg  11.4519 -4.11822 -1.88211
RightFoot  -11.7626 -0.0405041 10.7448
RightToes  5.38607e-012 1.2921e-014 -6.02303e-014
Spine  0.92307 -0.718501 -0.973077
Spine1  6.59676 0.68415 -5.39559
HEad  4.48378 28.4753 -5.95105
LeftShoulder1  1.33282 -1.79236 -19.9288
LeftArm  -0.864453 -11.0898 -54.8861
LeftForeArm  36.5866 -3.21097 -11.9631
LeftHand  -0.0912446 3.62515 4.97197
RightShoulder  2.01789 2.80094 27.0785
RightArm  -28.3487 5.13581 49.8629
RightForeArm  61.7537 -5.29389 1.63794
RightHand  -0.164992 -4.3877 -17.8857
LeftUpLeg  -9.45681 -4.47267 4.0649
LeftLeg  26.07 -1.32891 -0.350833
LeftFoot  -20.1865 -0.0536177 -2.25835
LeftToes  -4.79707e-012 -5.93756e-011 -7.55542e-012
